<?xml version="1.0" standalone="no"?><!DOCTYPE svg PUBLIC "-//W3C//DTD SVG 1.1//EN" "http://www.w3.org/Graphics/SVG/1.1/DTD/svg11.dtd"><svg t="1506063578986" class="icon" style="" viewBox="0 0 1024 1024" version="1.1" xmlns="http://www.w3.org/2000/svg" p-id="2354" xmlns:xlink="http://www.w3.org/1999/xlink" width="200" height="200"><defs><style type="text/css"></style></defs><path d="M512 10.24c276.48 0 501.76 225.28 501.76 501.76s-225.28 501.76-501.76 501.76-501.76-225.28-501.76-501.76S235.52 10.24 512 10.24m0-10.24C229.376 0 0 229.376 0 512s229.376 512 512 512 512-229.376 512-512S794.624 0 512 0z" fill="#999999" p-id="2355"></path><path d="M650.24 296.96H312.32c-14.336 0-25.6 11.264-25.6 25.6v440.32c0 14.336 11.264 25.6 25.6 25.6h337.92c14.336 0 25.6-11.264 25.6-25.6V322.56c0-14.336-11.264-25.6-25.6-25.6z m15.36 465.92c0 8.704-6.656 15.36-15.36 15.36H312.32c-8.704 0-15.36-6.656-15.36-15.36V322.56c0-8.704 6.656-15.36 15.36-15.36h337.92c8.704 0 15.36 6.656 15.36 15.36v440.32z" fill="#979797" p-id="2356"></path><path d="M711.68 727.04h-40.96c-3.072 0-5.12-2.048-5.12-5.12s2.048-5.12 5.12-5.12h40.96c8.704 0 15.36-6.656 15.36-15.36V261.12c0-8.704-6.656-15.36-15.36-15.36H373.76c-8.704 0-15.36 6.656-15.36 15.36v40.96c0 3.072-2.048 5.12-5.12 5.12s-5.12-2.048-5.12-5.12v-40.96c0-14.336 11.264-25.6 25.6-25.6h337.92c14.336 0 25.6 11.264 25.6 25.6v440.32c0 14.336-11.264 25.6-25.6 25.6zM363.52 394.24c0 3.072 2.048 5.12 5.12 5.12h128c3.072 0 5.12-2.048 5.12-5.12s-2.048-5.12-5.12-5.12H368.64c-3.072 0-5.12 2.048-5.12 5.12z m0 102.4c0 3.072 2.048 5.12 5.12 5.12h230.4c3.072 0 5.12-2.048 5.12-5.12s-2.048-5.12-5.12-5.12H368.64c-3.072 0-5.12 2.048-5.12 5.12z m0 102.4c0 3.072 2.048 5.12 5.12 5.12h71.68c3.072 0 5.12-2.048 5.12-5.12s-2.048-5.12-5.12-5.12H368.64c-3.072 0-5.12 2.048-5.12 5.12z" fill="#979797" p-id="2357"></path></svg>